<?xml version="1.0" encoding="UTF-8"?>
<svg width="1415px" height="560px" viewBox="0 0 1415 560" version="1.1" xmlns="http://www.w3.org/2000/svg" xmlns:xlink="http://www.w3.org/1999/xlink">
    <!-- Generator: Sketch 63.1 (92452) - https://sketch.com -->
    <title>Slice</title>
    <desc>Created with Sketch.</desc>
    <g id="Page-1" stroke="none" stroke-width="1" fill="none" fill-rule="evenodd">
        <text id="low-fodmap-feasts" font-family="Pacifico-Regular, Pacifico" font-size="190" font-weight="normal" fill="#FFFFFF">
            <tspan x="0" y="474">low fodmap feasts</tspan>
        </text>
        <g id="pie" transform="translate(502.000000, 0.000000)" fill-rule="nonzero">
            <g id="Group" transform="translate(8.000000, 8.000000)">
                <g id="Path">
                    <path d="M198.063542,99.9204231 C181.927465,99.9204231 177.804462,83.7665769 147.205667,83.7665769 C116.606067,83.7665769 112.484675,99.9204231 96.3485984,99.9204231 C80.211716,99.9204231 76.0903245,83.7665769 45.4907241,83.7665769 C32.0595619,83.7665769 18.8562921,87.8042308 8.02777485,95.9457692 C-0.833458418,102.610846 -2.62921907,115.218115 4.01670588,124.104346 C10.2744888,132.472038 21.802789,134.580923 30.5247099,129.230769 C32.0273509,128.307577 33.4212799,127.482923 34.7991034,126.780231 C38.0411359,125.127692 41.1986146,124.152 45.4915294,124.152 C61.6276065,124.152 65.7506085,140.305846 96.3494037,140.305846 C126.949004,140.305846 131.06959,124.152 147.206473,124.152 C163.34255,124.152 167.465552,140.305846 198.064347,140.305846 C228.663947,140.305846 232.784533,124.152 248.922221,124.152 C265.058298,124.152 269.180495,140.305846 299.77929,140.305846 C330.378085,140.305846 334.500282,124.152 350.637164,124.152 C355.116097,124.152 358.447515,125.286 361.398039,126.797192 C362.437647,127.329462 363.429744,127.907769 364.407347,128.499808 C372.270041,134.112462 383.250755,133.384731 390.302538,126.313385 C398.165231,118.428692 398.165231,105.644538 390.302538,97.7598462 C382.757927,90.2063077 369.318712,85.6307308 357.830675,84.2285769 C355.311779,83.9216538 352.886294,83.7665769 350.637164,83.7665769 C320.038369,83.7665769 315.915367,99.9204231 299.77929,99.9204231 C283.642408,99.9204231 279.521016,83.7665769 248.922221,83.7665769 C218.323426,83.7665769 214.199619,99.9204231 198.063542,99.9204231 L198.063542,99.9204231 Z" fill="#F3C9A6"></path>
                    <path d="M198.063542,140.305038 C167.464746,140.305038 163.341744,124.151192 147.205667,124.151192 C131.068785,124.151192 126.948199,140.305038 96.3485984,140.305038 C65.7498032,140.305038 61.6268012,124.151192 45.4907241,124.151192 C41.1978093,124.151192 38.0411359,125.127692 34.7982982,126.779423 L61.205643,193.848577 C64.4589493,202.110462 68.4523022,210.002423 77.3111197,210.002423 L318.891659,210.002423 C327.749671,210.002423 331.743024,202.112077 334.997136,193.848577 L361.398039,126.796385 C358.447515,125.286 355.116097,124.151192 350.637164,124.151192 C334.500282,124.151192 330.37889,140.305038 299.77929,140.305038 C269.180495,140.305038 265.058298,124.151192 248.922221,124.151192 C232.784533,124.151192 228.663142,140.305038 198.063542,140.305038 L198.063542,140.305038 Z" fill="#FFF7BF"></path>
                    <path d="M350.636359,83.7665769 C352.885489,83.7665769 355.310974,83.9216538 357.82987,84.2293846 C330.649462,34.6120385 269.367318,0.00242307692 198.101389,0.00242307692 C126.887803,0.00242307692 65.6427018,34.5619615 38.432499,84.1219615 L38.4212252,84.1429615 C40.7629615,83.8917692 43.1232191,83.7665769 45.4907241,83.7665769 C76.0903245,83.7665769 80.211716,99.9204231 96.3485984,99.9204231 C112.484675,99.9204231 116.606067,83.7665769 147.205667,83.7665769 C177.804462,83.7665769 181.927465,99.9204231 198.063542,99.9204231 C214.199619,99.9204231 218.321815,83.7665769 248.921416,83.7665769 C279.521016,83.7665769 283.642408,99.9204231 299.778485,99.9204231 C315.914562,99.9204231 320.037564,83.7665769 350.636359,83.7665769 Z" fill="#FFE9DA"></path>
                </g>
                <path d="M198.131185,58.2693462 C193.684462,58.2693462 190.078446,54.6533077 190.078446,50.1924231 L190.078446,34.0385769 C190.078446,29.5776923 193.684462,25.9616538 198.131185,25.9616538 C202.577907,25.9616538 206.183923,29.5776923 206.183923,34.0385769 L206.183923,50.1924231 C206.183923,54.6533077 202.577907,58.2693462 198.131185,58.2693462 Z" id="Path" fill="#000000"></path>
                <path d="M145.409907,55.9036154 C143.348406,55.9036154 141.288515,55.1153077 139.715815,53.5378846 C136.571221,50.3838462 136.571221,45.2695385 139.715815,42.1155 L151.104803,30.6931154 C154.251813,27.5390769 159.349197,27.5390769 162.493791,30.6931154 C165.638385,33.8471538 165.638385,38.9614615 162.493791,42.1155 L151.104803,53.5378846 C149.531298,55.1153077 147.470602,55.9036154 145.409907,55.9036154 Z" id="Path" fill="#000000"></path>
                <path d="M250.852462,55.9036154 C248.790961,55.9036154 246.731071,55.1153077 245.158371,53.5378846 L233.769383,42.1155 C230.624789,38.9614615 230.624789,33.8471538 233.769383,30.6931154 C236.914783,27.5390769 242.012166,27.5382692 245.158371,30.6931154 L256.547359,42.1155 C259.691953,45.2695385 259.691953,50.3838462 256.547359,53.5378846 C254.973854,55.1153077 252.913158,55.9036154 250.852462,55.9036154 L250.852462,55.9036154 Z" id="Path" fill="#000000"></path>
            </g>
            <path d="M403.743991,100.049843 C395.526607,91.8218578 382.517357,86.8805469 370.654776,84.8255685 C340.362626,33.1702244 276.249003,0 206.00131,0 C135.834889,0 71.7510394,33.1177603 41.4275069,84.6907761 C30.363972,86.5092625 20.0890228,90.8395684 11.2415745,97.491209 C5.23866741,102.00635 1.34884796,108.595034 0.287476045,116.044936 C-0.773091194,123.49403 1.12192842,130.912454 5.62330409,136.932104 C13.4383489,147.382952 27.0028268,150.949704 38.6586056,146.167399 L61.7239314,204.750426 C64.4389191,211.647437 70.0893767,226 85.3010331,226 L326.703196,226 C341.913243,226 347.56531,211.648244 350.281102,204.750426 L373.312631,146.248921 C383.591604,150.428291 395.586153,148.190899 403.749624,140.003271 C409.069358,134.668076 412,127.574123 412,120.028171 C412,112.483027 409.068554,105.389074 403.743991,100.049843 Z M206.00131,16.1427995 C266.394901,16.1427995 321.629693,42.3934129 350.995657,84.0281142 C335.722041,85.3824951 326.912412,90.7798401 320.245645,94.868004 C314.907403,98.1417638 311.920434,99.849672 307.603329,99.849672 C303.286225,99.849672 300.299256,98.1409566 294.960209,94.868004 C287.280351,90.1575352 276.761583,83.7068725 256.783812,83.7068725 C236.805236,83.7068725 226.286469,90.1575352 218.605805,94.868004 C213.267563,98.1417638 210.280594,99.849672 205.96349,99.849672 C201.646386,99.849672 198.659416,98.1409566 193.321174,94.868004 C185.640511,90.1583423 175.121744,83.7068725 155.143972,83.7068725 C135.165396,83.7068725 124.646629,90.1575352 116.965966,94.868004 C111.627724,98.1417638 108.641559,99.849672 104.324455,99.849672 C100.007351,99.849672 97.0203816,98.1409566 91.6813348,94.868004 C85.0258328,90.7862972 76.2331027,85.4002521 61.0037434,84.0353784 C90.3697076,42.4006771 145.623812,16.1427995 206.00131,16.1427995 L206.00131,16.1427995 Z M335.311654,198.820368 C331.676918,208.050821 329.40209,209.856393 326.702391,209.856393 L85.3002284,209.856393 C82.5997249,209.856393 80.3248967,208.050821 76.6917699,198.820368 L53.6151787,140.209899 C57.8711272,140.239763 60.8540731,141.944443 66.1456438,145.189146 C73.8271118,149.898808 84.3458788,156.350277 104.32365,156.350277 C124.302227,156.350277 134.820189,149.899615 142.500852,145.189146 C147.839094,141.915386 150.826064,140.207478 155.143168,140.207478 C159.460272,140.207478 162.447241,141.916193 167.785483,145.189146 C175.466147,149.898808 185.984914,156.350277 205.962685,156.350277 C225.941261,156.350277 236.460028,149.899615 244.139887,145.189146 C249.478934,141.915386 252.465903,140.207478 256.783007,140.207478 C261.100111,140.207478 264.087081,141.916193 269.425323,145.189146 C277.105986,149.898808 287.624753,156.350277 307.602525,156.350277 C327.580296,156.350277 338.099063,149.899615 345.779727,145.189146 C351.10268,141.925072 354.08804,140.217971 358.385832,140.208285 L335.311654,198.820368 Z M392.36985,128.587891 C388.185518,132.785019 381.657155,133.33791 376.850001,129.905143 C376.685042,129.787301 376.515255,129.675108 376.341444,129.57018 C371.941458,126.906618 366.565396,124.064678 358.422847,124.064678 C349.375033,124.064678 343.280393,127.801736 337.385313,131.416916 C330.337932,135.738344 323.051561,140.207478 307.602525,140.207478 C292.153488,140.207478 284.867117,135.738344 277.819737,131.416916 C271.925461,127.801736 265.830821,124.064678 256.782203,124.064678 C247.733585,124.064678 241.638944,127.801736 235.744669,131.416916 C228.697288,135.738344 221.410113,140.207478 205.961076,140.207478 C190.512039,140.207478 183.225669,135.738344 176.178288,131.416916 C170.284012,127.801736 164.189372,124.064678 155.140754,124.064678 C146.092129,124.064678 139.997495,127.802544 134.10322,131.416916 C127.055839,135.738344 119.769468,140.207478 104.320432,140.207478 C88.8713949,140.207478 81.5842197,135.738344 74.5368389,131.416916 C68.6425635,127.801736 62.5479229,124.064678 53.4993048,124.064678 C45.2062806,124.064678 39.9163193,126.901775 34.3398921,130.329699 C29.1328128,133.519516 22.173142,132.166749 18.4925392,127.245617 C16.5709652,124.674876 15.7614578,121.508466 16.2152969,118.328335 C16.6683313,115.148203 18.3291893,112.334513 20.891288,110.408677 C30.0775062,103.501173 41.3542811,99.8504791 53.4993048,99.8504791 C68.9475369,99.8504791 76.2355168,104.319613 83.2828976,108.641041 C89.1763683,112.256221 95.2710089,115.993279 104.320432,115.993279 C113.368245,115.993279 119.462886,112.256221 125.357161,108.641041 C132.404542,104.319613 139.691717,99.8504791 155.140754,99.8504791 C170.58979,99.8504791 177.876161,104.319613 184.923542,108.641041 C190.817817,112.256221 196.912458,115.993279 205.961076,115.993279 C215.008889,115.993279 221.10353,112.256221 226.99861,108.641848 C234.045991,104.319613 241.332361,99.8504791 256.782203,99.8504791 C272.22963,99.8504791 279.51761,104.319613 286.564991,108.641041 C292.458461,112.255413 298.553102,115.993279 307.602525,115.993279 C316.650338,115.993279 322.744979,112.256221 328.640059,108.641041 C335.68744,104.319613 342.97381,99.8504791 358.422847,99.8504791 C369.404304,99.8504791 385.106815,104.198542 392.36985,111.470066 C394.649506,113.756694 395.905611,116.796383 395.905611,120.028978 C395.905611,123.261574 394.649506,126.301263 392.36985,128.587891 L392.36985,128.587891 Z" id="Shape" fill="#000000"></path>
        </g>
    </g>
</svg>